<svg width="250" height="151" viewBox="0 0 250 151" fill="none" xmlns="http://www.w3.org/2000/svg">
<rect x="0.5" y="0.5" width="249" height="150" fill="white"/>
<rect x="0.5" y="0.5" width="249" height="150" stroke="black"/>
<rect x="0.5" y="0.5" width="124" height="150" stroke="black"/>
<rect x="18" y="16" width="90" height="14.7273" fill="black"/>
<rect x="18" y="68.3636" width="90" height="14.7273" fill="black"/>
<rect x="18" y="120.727" width="90" height="14.7273" fill="black"/>
<rect x="124.5" y="0.5" width="125" height="150" stroke="black"/>
<path fill-rule="evenodd" clip-rule="evenodd" d="M155.409 131.502L165.22 142.175L219 82.4443L209.187 71.7712L155.409 131.502Z" fill="black"/>
<path fill-rule="evenodd" clip-rule="evenodd" d="M155.409 100.39L165.22 111.063L219 51.3316L209.187 40.6585L155.409 100.39Z" fill="black"/>
<path fill-rule="evenodd" clip-rule="evenodd" d="M155 69.731L164.811 80.4041L218.591 20.6731L208.778 10L155 69.731Z" fill="black"/>
</svg>
