<svg width="250" height="151" viewBox="0 0 250 151" fill="none" xmlns="http://www.w3.org/2000/svg">
<rect x="0.5" y="0.5" width="249" height="150" fill="white"/>
<rect x="0.5" y="0.5" width="249" height="150" stroke="black"/>
<rect x="0.5" y="0.5" width="124" height="150" stroke="black"/>
<rect x="34" y="38" width="58.0137" height="9.49315" fill="black"/>
<rect x="34" y="71.7534" width="58.0137" height="9.49315" fill="black"/>
<rect x="34" y="105.507" width="58.0137" height="9.49315" fill="black"/>
<rect x="124.5" y="0.5" width="125" height="150" stroke="black"/>
<path fill-rule="evenodd" clip-rule="evenodd" d="M164.288 114.49L171.191 122L209.031 79.9726L202.126 72.4629L164.288 114.49Z" fill="black"/>
<path fill-rule="evenodd" clip-rule="evenodd" d="M164.288 92.5991L171.191 100.109L209.031 58.0814L202.126 50.5717L164.288 92.5991Z" fill="black"/>
<path fill-rule="evenodd" clip-rule="evenodd" d="M164 71.0274L170.903 78.5371L208.743 36.5097L201.839 29L164 71.0274Z" fill="black"/>
</svg>
