<svg width="210" height="268" viewBox="0 0 210 268" fill="none" xmlns="http://www.w3.org/2000/svg">
<g clip-path="url(#clip0_60_265)">
<circle cx="104.5" cy="104.5" r="104.5" fill="white"/>
<path d="M208.5 104.5C208.5 108.608 205.736 112.621 200.498 116.354C195.272 120.078 187.678 123.453 178.248 126.295C159.396 131.978 133.322 135.5 104.5 135.5C75.6779 135.5 49.6038 131.978 30.7516 126.295C21.3224 123.453 13.7281 120.078 8.50231 116.354C3.2639 112.621 0.5 108.608 0.5 104.5C0.5 100.392 3.2639 96.3792 8.50231 92.646C13.7281 88.9217 21.3224 85.5472 30.7516 82.7049C49.6038 77.0221 75.6779 73.5 104.5 73.5C133.322 73.5 159.396 77.0221 178.248 82.7049C187.678 85.5472 195.272 88.9217 200.498 92.646C205.736 96.3792 208.5 100.392 208.5 104.5Z" stroke="url(#paint0_linear_60_265)"/>
<path d="M78 104.595L104.896 114.872V54L78 104.595Z" fill="url(#paint1_linear_60_265)"/>
<path d="M104.896 114.872L131 104.595L104.896 54V114.872Z" fill="url(#paint2_linear_60_265)"/>
<path d="M78 110.919L104.896 156.5V121.986L78 110.919Z" fill="url(#paint3_linear_60_265)"/>
<path d="M104.896 121.986V156.5L131 110.919L104.896 121.986Z" fill="url(#paint4_linear_60_265)"/>
<path d="M28.8713 242V240.944L32.8073 240.464H33.3193V242H28.8713ZM31.6873 242C31.73 240.976 31.7513 239.92 31.7513 238.832C31.7727 237.723 31.7833 236.592 31.7833 235.44C31.7833 234.267 31.7833 233.125 31.7833 232.016V230.512C31.7833 229.403 31.7833 228.283 31.7833 227.152C31.7833 226 31.7727 224.869 31.7513 223.76C31.7513 222.651 31.73 221.584 31.6873 220.56H34.7273C34.6847 221.563 34.6527 222.619 34.6313 223.728C34.61 224.837 34.5993 225.968 34.5993 227.12C34.5993 228.251 34.5993 229.381 34.5993 230.512V231.76C34.5993 232.955 34.5993 234.149 34.5993 235.344C34.5993 236.517 34.61 237.669 34.6313 238.8C34.6527 239.909 34.6847 240.976 34.7273 242H31.6873ZM33.1913 242V240.656H43.5913L42.4393 241.424L43.6553 236.208H45.0633L44.8073 242H33.1913ZM33.1913 231.696V230.416H39.9753V231.696H33.1913ZM39.7513 234.768L39.1433 231.312V230.672L39.7513 227.344H40.9353V234.768H39.7513ZM28.8713 221.616V220.56H33.3193V222.096H32.8073L28.8713 221.616ZM43.0473 226.256L41.8633 221.136L42.9833 221.904H33.1913V220.56H44.1993L44.4553 226.256H43.0473ZM49.8701 242V241.088L53.1821 240.728H53.7341L57.0221 241.088V242H49.8701ZM52.2701 242C52.3021 241.2 52.3181 240.392 52.3181 239.576C52.3341 238.76 52.3421 237.928 52.3421 237.08C52.3421 236.216 52.3421 235.368 52.3421 234.536V233.384C52.3421 232.552 52.3421 231.72 52.3421 230.888C52.3421 230.04 52.3341 229.2 52.3181 228.368C52.3181 227.536 52.3021 226.72 52.2701 225.92H54.6221C54.6061 226.704 54.5901 227.512 54.5741 228.344C54.5581 229.176 54.5501 230.016 54.5501 230.864C54.5501 231.696 54.5501 232.536 54.5501 233.384V234.536C54.5501 235.368 54.5501 236.208 54.5501 237.056C54.5501 237.888 54.5581 238.72 54.5741 239.552C54.5901 240.368 54.6061 241.184 54.6221 242H52.2701ZM46.7501 230.216L46.9421 225.92H59.9501L60.1661 230.216H58.8701L58.0541 225.944L59.1341 227.048H47.7581L48.8621 225.944L48.0461 230.216H46.7501ZM61.6687 242V241.088L64.7647 240.728H65.2687L68.3407 241.088V242H61.6687ZM63.8287 242C63.8607 241.2 63.8767 240.392 63.8767 239.576C63.8927 238.76 63.9007 237.928 63.9007 237.08C63.9007 236.216 63.9007 235.368 63.9007 234.536V233.384C63.9007 232.552 63.9007 231.72 63.9007 230.888C63.9007 230.04 63.8927 229.2 63.8767 228.368C63.8767 227.536 63.8607 226.72 63.8287 225.92H66.2047C66.1887 226.704 66.1727 227.512 66.1567 228.344C66.1407 229.176 66.1327 230.016 66.1327 230.864C66.1327 231.696 66.1327 232.536 66.1327 233.384V234.128C66.1327 235.104 66.1327 236.04 66.1327 236.936C66.1327 237.816 66.1407 238.68 66.1567 239.528C66.1727 240.36 66.1887 241.184 66.2047 242H63.8287ZM65.0047 234.32V233.24H74.9647V234.32H65.0047ZM71.6287 242V241.088L74.7007 240.728H75.2287L78.3007 241.088V242H71.6287ZM73.7887 242C73.8207 241.2 73.8367 240.384 73.8367 239.552C73.8527 238.72 73.8607 237.856 73.8607 236.96C73.8607 236.048 73.8607 235.104 73.8607 234.128V233.384C73.8607 232.552 73.8607 231.72 73.8607 230.888C73.8607 230.04 73.8527 229.2 73.8367 228.368C73.8367 227.536 73.8207 226.72 73.7887 225.92H76.1407C76.1247 226.704 76.1087 227.512 76.0927 228.344C76.0767 229.176 76.0687 230.016 76.0687 230.864C76.0687 231.696 76.0687 232.536 76.0687 233.384V234.536C76.0687 235.368 76.0687 236.208 76.0687 237.056C76.0687 237.888 76.0767 238.72 76.0927 239.552C76.1087 240.368 76.1247 241.184 76.1407 242H73.7887ZM61.6687 226.832V225.92H68.3407V226.832L65.2687 227.192H64.7647L61.6687 226.832ZM71.6287 226.832V225.92H78.3007V226.832L75.2287 227.192H74.7007L71.6287 226.832ZM80.3718 242V241.088L83.4678 240.728H83.7558V242H80.3718ZM82.5318 242C82.5638 241.2 82.5798 240.392 82.5798 239.576C82.5958 238.76 82.6038 237.928 82.6038 237.08C82.6038 236.216 82.6038 235.368 82.6038 234.536V233.384C82.6038 232.552 82.6038 231.72 82.6038 230.888C82.6038 230.04 82.5958 229.2 82.5798 228.368C82.5798 227.536 82.5638 226.72 82.5318 225.92H84.9078C84.8918 226.704 84.8758 227.512 84.8598 228.344C84.8438 229.176 84.8358 230.016 84.8358 230.864C84.8358 231.696 84.8358 232.536 84.8358 233.384V234.296C84.8358 235.192 84.8358 236.08 84.8358 236.96C84.8358 237.84 84.8438 238.696 84.8598 239.528C84.8758 240.36 84.8918 241.184 84.9078 242H82.5318ZM83.7078 242V240.872H91.6758L90.8358 241.544L91.5558 237.704H92.8278L92.6598 242H83.7078ZM83.7078 234.344V233.264H89.0358V234.344H83.7078ZM88.6998 236.6L88.3158 233.96V233.48L88.6998 230.984H89.7318V236.6H88.6998ZM80.3718 226.832V225.92H83.7558V227.192H83.4678L80.3718 226.832ZM91.0998 230.168L90.3558 226.376L91.1958 227.048H83.7078V225.92H92.1798L92.3478 230.168H91.0998ZM94.4109 242V241.088L97.5069 240.728H98.0349L101.107 241.088V242H94.4109ZM96.5709 242C96.6029 241.2 96.6189 240.392 96.6189 239.576C96.6349 238.76 96.6429 237.928 96.6429 237.08C96.6429 236.216 96.6429 235.368 96.6429 234.536V233.384C96.6429 232.552 96.6429 231.72 96.6429 230.888C96.6429 230.04 96.6349 229.2 96.6189 228.368C96.6189 227.536 96.6029 226.72 96.5709 225.92H98.9469C98.9309 226.736 98.9149 227.56 98.8989 228.392C98.8829 229.208 98.8749 230.048 98.8749 230.912C98.8749 231.76 98.8749 232.648 98.8749 233.576V234.32C98.8749 235.216 98.8749 236.104 98.8749 236.984C98.8749 237.848 98.8829 238.696 98.8989 239.528C98.9149 240.36 98.9309 241.184 98.9469 242H96.5709ZM106.795 242.24C106.043 242.24 105.483 242.128 105.115 241.904C104.747 241.68 104.483 241.28 104.323 240.704L103.291 236.864C103.131 236.208 102.915 235.72 102.643 235.4C102.371 235.064 102.027 234.84 101.611 234.728C101.195 234.616 100.659 234.56 100.003 234.56H97.7469V233.528H100.723C101.571 233.528 102.275 233.384 102.835 233.096C103.395 232.792 103.811 232.384 104.083 231.872C104.355 231.36 104.491 230.784 104.491 230.144C104.491 229.12 104.211 228.336 103.651 227.792C103.091 227.248 102.203 226.976 100.987 226.976H97.7469V225.92H101.059C102.867 225.92 104.275 226.288 105.283 227.024C106.307 227.76 106.819 228.792 106.819 230.12C106.819 230.792 106.635 231.44 106.267 232.064C105.915 232.672 105.371 233.176 104.635 233.576C103.915 233.976 103.011 234.216 101.923 234.296V234.128C102.403 234.144 102.835 234.216 103.219 234.344C103.619 234.472 103.963 234.664 104.251 234.92C104.555 235.16 104.811 235.472 105.019 235.856C105.243 236.24 105.443 236.704 105.619 237.248L106.843 241.28L106.027 240.8L108.571 241.088V242C108.411 242.048 108.235 242.088 108.043 242.12C107.867 242.152 107.675 242.176 107.467 242.192C107.275 242.224 107.051 242.24 106.795 242.24ZM94.4109 226.832V225.92H97.7949V227.192H97.5069L94.4109 226.832ZM109.95 242V241.088L113.046 240.728H113.598L116.694 241.088V242H109.95ZM112.11 242C112.142 241.2 112.158 240.392 112.158 239.576C112.174 238.76 112.182 237.928 112.182 237.08C112.182 236.216 112.182 235.368 112.182 234.536V233.384C112.182 232.552 112.182 231.72 112.182 230.888C112.182 230.04 112.174 229.2 112.158 228.368C112.158 227.536 112.142 226.72 112.11 225.92H114.486C114.47 226.704 114.454 227.512 114.438 228.344C114.422 229.176 114.414 230.016 114.414 230.864C114.414 231.696 114.414 232.536 114.414 233.384V234.8C114.414 235.616 114.414 236.424 114.414 237.224C114.414 238.008 114.422 238.8 114.438 239.6C114.454 240.384 114.47 241.184 114.486 242H112.11ZM113.262 235.616V234.536H115.998C116.958 234.536 117.734 234.376 118.326 234.056C118.918 233.72 119.35 233.264 119.622 232.688C119.894 232.112 120.03 231.44 120.03 230.672C120.03 229.504 119.694 228.6 119.022 227.96C118.366 227.304 117.326 226.976 115.902 226.976H113.262V225.92H116.334C117.662 225.92 118.766 226.128 119.646 226.544C120.542 226.944 121.214 227.504 121.662 228.224C122.11 228.928 122.334 229.744 122.334 230.672C122.334 231.568 122.11 232.392 121.662 233.144C121.23 233.896 120.526 234.496 119.55 234.944C118.574 235.392 117.278 235.616 115.662 235.616H113.262ZM109.95 226.832V225.92H113.334V227.192H113.046L109.95 226.832ZM123.684 242V241.088L126.78 240.728H127.068V242H123.684ZM125.844 242C125.876 241.2 125.892 240.392 125.892 239.576C125.908 238.76 125.916 237.928 125.916 237.08C125.916 236.216 125.916 235.368 125.916 234.536V233.384C125.916 232.552 125.916 231.72 125.916 230.888C125.916 230.04 125.908 229.2 125.892 228.368C125.892 227.536 125.876 226.72 125.844 225.92H128.22C128.204 226.704 128.188 227.512 128.172 228.344C128.156 229.176 128.148 230.016 128.148 230.864C128.148 231.696 128.148 232.536 128.148 233.384V234.296C128.148 235.192 128.148 236.08 128.148 236.96C128.148 237.84 128.156 238.696 128.172 239.528C128.188 240.36 128.204 241.184 128.22 242H125.844ZM127.02 242V240.872H134.988L134.148 241.544L134.868 237.704H136.14L135.972 242H127.02ZM127.02 234.344V233.264H132.348V234.344H127.02ZM132.012 236.6L131.628 233.96V233.48L132.012 230.984H133.044V236.6H132.012ZM123.684 226.832V225.92H127.068V227.192H126.78L123.684 226.832ZM134.412 230.168L133.668 226.376L134.508 227.048H127.02V225.92H135.492L135.66 230.168H134.412ZM137.723 242V241.088L140.819 240.728H141.107V242H137.723ZM139.883 242C139.915 241.2 139.931 240.392 139.931 239.576C139.947 238.744 139.955 237.888 139.955 237.008C139.955 236.112 139.955 235.208 139.955 234.296V233.384C139.955 232.552 139.955 231.72 139.955 230.888C139.955 230.04 139.947 229.2 139.931 228.368C139.931 227.536 139.915 226.72 139.883 225.92H142.259C142.243 226.704 142.227 227.512 142.211 228.344C142.195 229.176 142.187 230.016 142.187 230.864C142.187 231.696 142.187 232.536 142.187 233.384V234.296C142.187 235.192 142.187 236.08 142.187 236.96C142.187 237.84 142.195 238.696 142.211 239.528C142.227 240.36 142.243 241.184 142.259 242H139.883ZM141.083 242V240.92H144.107C145.355 240.92 146.403 240.648 147.251 240.104C148.115 239.544 148.763 238.752 149.195 237.728C149.643 236.688 149.867 235.44 149.867 233.984C149.867 231.696 149.379 229.96 148.403 228.776C147.443 227.576 146.083 226.976 144.323 226.976H141.083V225.92H144.707C146.227 225.92 147.563 226.232 148.715 226.856C149.883 227.48 150.795 228.392 151.451 229.592C152.107 230.776 152.435 232.24 152.435 233.984C152.435 235.712 152.075 237.176 151.355 238.376C150.635 239.56 149.659 240.464 148.427 241.088C147.211 241.696 145.827 242 144.275 242H141.083ZM137.723 226.832V225.92H141.107V227.192H140.819L137.723 226.832ZM153.966 242V241.088L157.062 240.728H157.59L160.662 241.088V242H153.966ZM156.126 242C156.158 241.2 156.174 240.392 156.174 239.576C156.19 238.76 156.198 237.928 156.198 237.08C156.198 236.216 156.198 235.368 156.198 234.536V233.384C156.198 232.552 156.198 231.72 156.198 230.888C156.198 230.04 156.19 229.2 156.174 228.368C156.174 227.536 156.158 226.72 156.126 225.92H158.502C158.486 226.704 158.47 227.512 158.454 228.344C158.438 229.176 158.43 230.016 158.43 230.864C158.43 231.696 158.43 232.536 158.43 233.384V234.536C158.43 235.368 158.43 236.208 158.43 237.056C158.43 237.888 158.438 238.72 158.454 239.552C158.47 240.368 158.486 241.184 158.502 242H156.126ZM153.966 226.832V225.92H160.662V226.832L157.59 227.192H157.062L153.966 226.832ZM161.947 242V240.944L164.923 240.496H165.563L168.923 240.944V242H161.947ZM163.995 242L171.291 220.368H172.955L180.251 242H177.275L171.067 222.992H171.675L171.515 223.44L165.339 242H163.995ZM167.291 234.832V233.552H176.155V234.832H167.291ZM173.755 242V240.944L177.627 240.464H178.523L182.107 240.944V242H173.755Z" fill="white"/>
<path d="M14.3241 263V262.216L15.9401 262.056H16.2921L18.1161 262.216V263H14.3241ZM15.3481 263L19.1081 252.2H20.3241L24.1001 263H22.4361L19.2201 253.56H19.3321L19.0601 254.696L16.2281 263H15.3481ZM17.1241 259.576V258.76H21.8281V259.576H17.1241ZM20.5161 263V262.216L22.5961 262.056H23.0121L25.0761 262.216V263H20.5161ZM29.9183 263V261.896C30.345 261.501 30.761 261.107 31.1663 260.712C31.5823 260.307 31.9716 259.923 32.3343 259.56C32.889 258.995 33.3423 258.472 33.6943 257.992C34.057 257.512 34.3236 257.053 34.4943 256.616C34.665 256.179 34.7503 255.752 34.7503 255.336C34.7503 254.675 34.569 254.152 34.2063 253.768C33.8436 253.384 33.3476 253.192 32.7183 253.192C32.473 253.192 32.2116 253.213 31.9343 253.256C31.6676 253.299 31.401 253.373 31.1343 253.48L32.0143 252.936L31.6463 254.312C31.5823 254.568 31.5023 254.781 31.4063 254.952C31.321 255.123 31.2143 255.251 31.0863 255.336C30.969 255.411 30.8196 255.448 30.6383 255.448C30.4143 255.448 30.233 255.389 30.0943 255.272C29.9556 255.144 29.8543 255.005 29.7903 254.856C29.865 254.344 30.057 253.907 30.3663 253.544C30.6756 253.181 31.0703 252.909 31.5503 252.728C32.0303 252.536 32.553 252.44 33.1183 252.44C33.801 252.44 34.377 252.552 34.8463 252.776C35.3156 252.989 35.673 253.304 35.9183 253.72C36.1636 254.136 36.2863 254.627 36.2863 255.192C36.2863 255.672 36.185 256.136 35.9823 256.584C35.7903 257.021 35.465 257.507 35.0063 258.04C34.5476 258.563 33.913 259.192 33.1023 259.928C32.889 260.109 32.6596 260.307 32.4143 260.52C32.169 260.733 31.9076 260.947 31.6303 261.16C31.3636 261.373 31.0916 261.597 30.8143 261.832L31.0223 261.256V261.656H36.6863V263H29.9183ZM41.5432 263.208C40.8925 263.208 40.2952 263.021 39.7512 262.648C39.2179 262.275 38.7912 261.699 38.4712 260.92C38.1619 260.131 38.0072 259.112 38.0072 257.864C38.0072 256.605 38.1619 255.576 38.4712 254.776C38.7912 253.976 39.2179 253.389 39.7512 253.016C40.2952 252.632 40.8925 252.44 41.5432 252.44C42.1939 252.44 42.7805 252.627 43.3032 253C43.8365 253.373 44.2579 253.955 44.5672 254.744C44.8872 255.533 45.0472 256.557 45.0472 257.816C45.0472 259.064 44.8872 260.088 44.5672 260.888C44.2579 261.677 43.8365 262.264 43.3032 262.648C42.7805 263.021 42.1939 263.208 41.5432 263.208ZM41.5432 262.44C41.8419 262.44 42.1085 262.36 42.3432 262.2C42.5779 262.029 42.7805 261.763 42.9512 261.4C43.1219 261.037 43.2499 260.568 43.3352 259.992C43.4312 259.405 43.4792 258.685 43.4792 257.832C43.4792 256.989 43.4312 256.275 43.3352 255.688C43.2499 255.091 43.1219 254.611 42.9512 254.248C42.7805 253.885 42.5779 253.624 42.3432 253.464C42.1085 253.293 41.8419 253.208 41.5432 253.208C41.2339 253.208 40.9565 253.288 40.7112 253.448C40.4659 253.608 40.2579 253.869 40.0872 254.232C39.9272 254.595 39.7992 255.075 39.7032 255.672C39.6179 256.259 39.5752 256.979 39.5752 257.832C39.5752 258.685 39.6179 259.405 39.7032 259.992C39.7992 260.579 39.9272 261.053 40.0872 261.416C40.2579 261.768 40.4659 262.029 40.7112 262.2C40.9565 262.36 41.2339 262.44 41.5432 262.44ZM47.9361 263L47.8241 262.76L52.5441 253.64L52.4961 254.312L52.4321 253.992H46.4481V252.648H53.3441V253.48L49.4241 263H47.9361ZM56.2329 263L56.1209 262.76L60.8409 253.64L60.7929 254.312L60.7289 253.992H54.7449V252.648H61.6409V253.48L57.7209 263H56.2329ZM72.3594 263.24C71.5381 263.24 70.7861 263.112 70.1034 262.856C69.4208 262.589 68.8288 262.216 68.3274 261.736C67.8368 261.245 67.4528 260.653 67.1754 259.96C66.9088 259.267 66.7754 258.499 66.7754 257.656C66.7754 256.813 66.9141 256.051 67.1914 255.368C67.4794 254.675 67.8741 254.083 68.3754 253.592C68.8874 253.091 69.4848 252.707 70.1674 252.44C70.8501 252.173 71.5914 252.04 72.3914 252.04C72.9354 252.04 73.4848 252.099 74.0394 252.216C74.5941 252.333 75.1008 252.52 75.5594 252.776L75.6234 255.128H74.6154L74.1834 252.792L75.2234 252.936V253.928C74.8074 253.576 74.3701 253.32 73.9114 253.16C73.4634 252.989 73.0048 252.904 72.5354 252.904C71.7888 252.904 71.1114 253.085 70.5034 253.448C69.9061 253.811 69.4261 254.344 69.0634 255.048C68.7114 255.741 68.5354 256.605 68.5354 257.64C68.5354 258.664 68.7008 259.528 69.0314 260.232C69.3728 260.936 69.8368 261.469 70.4234 261.832C71.0101 262.195 71.6821 262.376 72.4394 262.376C72.9834 262.376 73.5061 262.296 74.0074 262.136C74.5194 261.976 74.9834 261.736 75.3994 261.416V262.344L74.3594 262.488L74.7914 260.12H75.7994L75.7354 262.504C75.2981 262.728 74.7914 262.904 74.2154 263.032C73.6501 263.171 73.0314 263.24 72.3594 263.24ZM80.9893 263.208C80.3386 263.208 79.72 263.053 79.1333 262.744C78.5573 262.435 78.088 261.981 77.7253 261.384C77.3626 260.776 77.1813 260.029 77.1813 259.144C77.1813 258.259 77.3626 257.512 77.7253 256.904C78.088 256.285 78.5573 255.816 79.1333 255.496C79.72 255.176 80.3386 255.016 80.9893 255.016C81.64 255.016 82.2533 255.176 82.8293 255.496C83.416 255.805 83.8906 256.264 84.2533 256.872C84.6266 257.48 84.8133 258.227 84.8133 259.112C84.8133 259.997 84.6266 260.744 84.2533 261.352C83.8906 261.96 83.416 262.424 82.8293 262.744C82.2533 263.053 81.64 263.208 80.9893 263.208ZM80.9893 262.408C81.4693 262.408 81.8746 262.285 82.2053 262.04C82.536 261.795 82.792 261.432 82.9733 260.952C83.1546 260.472 83.2453 259.869 83.2453 259.144C83.2453 258.419 83.1546 257.811 82.9733 257.32C82.792 256.829 82.536 256.461 82.2053 256.216C81.8746 255.96 81.4693 255.832 80.9893 255.832C80.5093 255.832 80.104 255.955 79.7733 256.2C79.4426 256.445 79.1866 256.813 79.0053 257.304C78.8346 257.795 78.7493 258.403 78.7493 259.128C78.7493 259.853 78.8346 260.461 79.0053 260.952C79.1866 261.432 79.4426 261.795 79.7733 262.04C80.104 262.285 80.5093 262.408 80.9893 262.408ZM85.9264 263V262.296L87.7344 262.088H88.1504L89.9744 262.296V263H85.9264ZM87.2064 263C87.2171 262.616 87.2224 262.237 87.2224 261.864C87.2331 261.48 87.2384 261.101 87.2384 260.728C87.2384 260.344 87.2384 259.965 87.2384 259.592V252.68L85.8784 252.456V251.816L88.3264 251.208L88.6944 251.304L88.6464 253.416V259.592C88.6464 259.965 88.6464 260.344 88.6464 260.728C88.6571 261.101 88.6624 261.48 88.6624 261.864C88.6731 262.237 88.6784 262.616 88.6784 263H87.2064ZM91.0358 263V262.296L92.8438 262.088H93.2598L95.0838 262.296V263H91.0358ZM92.3158 263C92.3265 262.616 92.3318 262.237 92.3318 261.864C92.3425 261.48 92.3478 261.101 92.3478 260.728C92.3478 260.344 92.3478 259.965 92.3478 259.592V252.68L90.9878 252.456V251.816L93.4358 251.208L93.8038 251.304L93.7558 253.416V259.592C93.7558 259.965 93.7558 260.344 93.7558 260.728C93.7665 261.101 93.7718 261.48 93.7718 261.864C93.7825 262.237 93.7878 262.616 93.7878 263H92.3158ZM100.145 263.208C99.3665 263.208 98.6892 263.048 98.1132 262.728C97.5479 262.397 97.1105 261.933 96.8012 261.336C96.5025 260.739 96.3532 260.029 96.3532 259.208C96.3532 258.387 96.5132 257.661 96.8332 257.032C97.1639 256.403 97.6119 255.912 98.1772 255.56C98.7425 255.197 99.3772 255.016 100.081 255.016C100.7 255.016 101.244 255.144 101.713 255.4C102.183 255.645 102.551 256.003 102.817 256.472C103.084 256.931 103.217 257.485 103.217 258.136C103.217 258.328 103.207 258.52 103.185 258.712C103.164 258.893 103.137 259.043 103.105 259.16H97.1372V258.44H101.137C101.436 258.387 101.628 258.291 101.713 258.152C101.799 258.003 101.841 257.827 101.841 257.624C101.841 257.229 101.772 256.899 101.633 256.632C101.495 256.365 101.292 256.163 101.025 256.024C100.759 255.885 100.444 255.816 100.081 255.816C99.6865 255.816 99.3132 255.928 98.9612 256.152C98.6199 256.376 98.3425 256.723 98.1292 257.192C97.9265 257.661 97.8252 258.28 97.8252 259.048C97.8252 259.699 97.9319 260.259 98.1452 260.728C98.3692 261.187 98.6785 261.539 99.0732 261.784C99.4785 262.019 99.9532 262.136 100.497 262.136C101.041 262.136 101.5 262.04 101.873 261.848C102.257 261.656 102.599 261.384 102.897 261.032L103.345 261.4C103.121 261.752 102.865 262.067 102.577 262.344C102.3 262.611 101.964 262.824 101.569 262.984C101.185 263.133 100.711 263.208 100.145 263.208ZM108.519 263.208C107.741 263.208 107.069 263.048 106.503 262.728C105.938 262.397 105.506 261.933 105.207 261.336C104.909 260.728 104.759 260.019 104.759 259.208C104.759 258.355 104.93 257.619 105.271 257C105.623 256.371 106.087 255.885 106.663 255.544C107.239 255.192 107.874 255.016 108.567 255.016C109.111 255.016 109.597 255.107 110.023 255.288C110.45 255.469 110.797 255.709 111.063 256.008C111.33 256.307 111.506 256.637 111.591 257C111.549 257.224 111.463 257.4 111.335 257.528C111.207 257.645 111.031 257.704 110.807 257.704C110.53 257.704 110.322 257.629 110.183 257.48C110.055 257.32 109.959 257.128 109.895 256.904L109.463 255.464L110.343 256.2C110.087 256.072 109.821 255.976 109.543 255.912C109.277 255.848 108.994 255.816 108.695 255.816C108.215 255.816 107.789 255.944 107.415 256.2C107.053 256.445 106.765 256.808 106.551 257.288C106.349 257.768 106.247 258.355 106.247 259.048C106.247 259.741 106.359 260.317 106.583 260.776C106.818 261.224 107.127 261.56 107.511 261.784C107.906 262.008 108.349 262.12 108.839 262.12C109.17 262.12 109.463 262.077 109.719 261.992C109.986 261.907 110.237 261.784 110.471 261.624C110.706 261.464 110.925 261.261 111.127 261.016L111.607 261.448C111.415 261.789 111.181 262.093 110.903 262.36C110.637 262.616 110.311 262.824 109.927 262.984C109.543 263.133 109.074 263.208 108.519 263.208ZM114.516 256.12V255.224H117.428V256.12H114.516ZM115.716 263.176C115.129 263.176 114.66 263.016 114.308 262.696C113.956 262.376 113.78 261.885 113.78 261.224C113.78 261.021 113.78 260.824 113.78 260.632C113.78 260.44 113.78 260.211 113.78 259.944V256.12H112.404V255.384L114.436 255.144L113.828 255.64L114.34 253.032H115.316L115.156 255.688L115.204 255.912V261.064C115.204 261.48 115.289 261.784 115.46 261.976C115.631 262.157 115.865 262.248 116.164 262.248C116.356 262.248 116.537 262.216 116.708 262.152C116.879 262.077 117.049 261.987 117.22 261.88L117.588 262.424C117.471 262.563 117.316 262.691 117.124 262.808C116.943 262.925 116.735 263.016 116.5 263.08C116.265 263.144 116.004 263.176 115.716 263.176ZM118.335 263V262.296L120.127 262.088H120.543L122.223 262.296V263H118.335ZM119.567 263C119.578 262.701 119.583 262.355 119.583 261.96C119.583 261.565 119.583 261.16 119.583 260.744C119.594 260.317 119.599 259.933 119.599 259.592V258.792C119.599 258.376 119.594 258.008 119.583 257.688C119.583 257.368 119.578 257.037 119.567 256.696L118.255 256.6V255.944L120.671 255.08L121.055 255.192L121.023 257.224V259.592C121.023 259.933 121.023 260.317 121.023 260.744C121.023 261.16 121.023 261.565 121.023 261.96C121.034 262.355 121.044 262.701 121.055 263H119.567ZM120.255 253.48C119.956 253.48 119.7 253.379 119.487 253.176C119.274 252.973 119.167 252.723 119.167 252.424C119.167 252.125 119.274 251.88 119.487 251.688C119.7 251.485 119.956 251.384 120.255 251.384C120.554 251.384 120.804 251.485 121.007 251.688C121.22 251.88 121.327 252.125 121.327 252.424C121.327 252.723 121.22 252.973 121.007 253.176C120.804 253.379 120.554 253.48 120.255 253.48ZM126.381 263.064L123.197 255.224H124.829L127.341 261.912H127.165L127.501 260.6L129.437 255.224H130.461L127.341 263.064H126.381ZM122.573 255.944V255.224H126.605V255.944L124.733 256.168H124.077L122.573 255.944ZM127.805 255.944V255.224H131.085V255.944L129.853 256.168H129.437L127.805 255.944ZM135.567 263.208C134.788 263.208 134.111 263.048 133.535 262.728C132.97 262.397 132.532 261.933 132.223 261.336C131.924 260.739 131.775 260.029 131.775 259.208C131.775 258.387 131.935 257.661 132.255 257.032C132.586 256.403 133.034 255.912 133.599 255.56C134.164 255.197 134.799 255.016 135.503 255.016C136.122 255.016 136.666 255.144 137.135 255.4C137.604 255.645 137.972 256.003 138.239 256.472C138.506 256.931 138.639 257.485 138.639 258.136C138.639 258.328 138.628 258.52 138.607 258.712C138.586 258.893 138.559 259.043 138.527 259.16H132.559V258.44H136.559C136.858 258.387 137.05 258.291 137.135 258.152C137.22 258.003 137.263 257.827 137.263 257.624C137.263 257.229 137.194 256.899 137.055 256.632C136.916 256.365 136.714 256.163 136.447 256.024C136.18 255.885 135.866 255.816 135.503 255.816C135.108 255.816 134.735 255.928 134.383 256.152C134.042 256.376 133.764 256.723 133.551 257.192C133.348 257.661 133.247 258.28 133.247 259.048C133.247 259.699 133.354 260.259 133.567 260.728C133.791 261.187 134.1 261.539 134.495 261.784C134.9 262.019 135.375 262.136 135.919 262.136C136.463 262.136 136.922 262.04 137.295 261.848C137.679 261.656 138.02 261.384 138.319 261.032L138.767 261.4C138.543 261.752 138.287 262.067 137.999 262.344C137.722 262.611 137.386 262.824 136.991 262.984C136.607 263.133 136.132 263.208 135.567 263.208ZM143.835 266.76V266.056L145.659 265.848H146.075L148.059 266.056V266.76H143.835ZM145.131 266.76C145.142 266.397 145.147 266.035 145.147 265.672C145.147 265.32 145.147 264.963 145.147 264.6C145.158 264.248 145.163 263.896 145.163 263.544V258.776C145.163 258.488 145.158 258.232 145.147 258.008C145.147 257.784 145.147 257.565 145.147 257.352C145.147 257.139 145.142 256.92 145.131 256.696L143.819 256.6V255.944L145.947 255.08L146.331 255.192L146.491 256.632L146.587 256.664V261.656L146.507 261.72L146.555 263.608C146.555 263.949 146.555 264.296 146.555 264.648C146.555 265 146.555 265.352 146.555 265.704C146.566 266.056 146.576 266.408 146.587 266.76H145.131ZM148.891 263.208C148.539 263.208 148.219 263.149 147.931 263.032C147.643 262.925 147.376 262.76 147.131 262.536C146.886 262.301 146.651 262.003 146.427 261.64H145.915L146.011 260.616C146.438 261.16 146.843 261.565 147.227 261.832C147.622 262.099 148.048 262.232 148.507 262.232C148.912 262.232 149.28 262.125 149.611 261.912C149.942 261.699 150.203 261.368 150.395 260.92C150.598 260.461 150.699 259.885 150.699 259.192C150.699 258.147 150.502 257.357 150.107 256.824C149.723 256.28 149.227 256.008 148.619 256.008C148.352 256.008 148.086 256.061 147.819 256.168C147.552 256.275 147.27 256.445 146.971 256.68C146.683 256.915 146.363 257.224 146.011 257.608L145.915 256.616H146.427C146.672 256.275 146.923 255.987 147.179 255.752C147.446 255.517 147.728 255.336 148.027 255.208C148.336 255.08 148.678 255.016 149.051 255.016C149.648 255.016 150.182 255.176 150.651 255.496C151.131 255.816 151.51 256.28 151.787 256.888C152.075 257.496 152.219 258.227 152.219 259.08C152.219 259.933 152.07 260.669 151.771 261.288C151.483 261.907 151.088 262.381 150.587 262.712C150.086 263.043 149.52 263.208 148.891 263.208ZM153.665 263V262.296L155.441 262.088H155.889L157.809 262.296V263H153.665ZM154.865 263C154.876 262.701 154.881 262.355 154.881 261.96C154.892 261.565 154.897 261.16 154.897 260.744C154.897 260.317 154.897 259.933 154.897 259.592V258.776C154.897 258.488 154.897 258.232 154.897 258.008C154.897 257.784 154.892 257.565 154.881 257.352C154.881 257.139 154.876 256.92 154.865 256.696L153.553 256.6V255.944L155.713 255.08L156.081 255.192L156.257 257.32L156.321 257.336V259.592C156.321 259.933 156.321 260.317 156.321 260.744C156.332 261.16 156.337 261.565 156.337 261.96C156.337 262.355 156.342 262.701 156.353 263H154.865ZM156.209 258.52L156.049 257.368H156.337C156.529 256.888 156.742 256.477 156.977 256.136C157.222 255.784 157.489 255.517 157.777 255.336C158.065 255.144 158.374 255.048 158.705 255.048C158.993 255.048 159.238 255.117 159.441 255.256C159.654 255.395 159.804 255.555 159.889 255.736C159.878 256.077 159.793 256.36 159.633 256.584C159.473 256.808 159.222 256.92 158.881 256.92C158.678 256.92 158.492 256.883 158.321 256.808C158.161 256.723 158.012 256.616 157.873 256.488L157.473 256.12L158.289 256.024C157.777 256.28 157.356 256.621 157.025 257.048C156.694 257.475 156.422 257.965 156.209 258.52ZM164.474 263.208C163.823 263.208 163.204 263.053 162.618 262.744C162.042 262.435 161.572 261.981 161.21 261.384C160.847 260.776 160.666 260.029 160.666 259.144C160.666 258.259 160.847 257.512 161.21 256.904C161.572 256.285 162.042 255.816 162.618 255.496C163.204 255.176 163.823 255.016 164.474 255.016C165.124 255.016 165.738 255.176 166.314 255.496C166.9 255.805 167.375 256.264 167.738 256.872C168.111 257.48 168.298 258.227 168.298 259.112C168.298 259.997 168.111 260.744 167.738 261.352C167.375 261.96 166.9 262.424 166.314 262.744C165.738 263.053 165.124 263.208 164.474 263.208ZM164.474 262.408C164.954 262.408 165.359 262.285 165.69 262.04C166.02 261.795 166.276 261.432 166.458 260.952C166.639 260.472 166.73 259.869 166.73 259.144C166.73 258.419 166.639 257.811 166.458 257.32C166.276 256.829 166.02 256.461 165.69 256.216C165.359 255.96 164.954 255.832 164.474 255.832C163.994 255.832 163.588 255.955 163.258 256.2C162.927 256.445 162.671 256.813 162.49 257.304C162.319 257.795 162.234 258.403 162.234 259.128C162.234 259.853 162.319 260.461 162.49 260.952C162.671 261.432 162.927 261.795 163.258 262.04C163.588 262.285 163.994 262.408 164.474 262.408ZM169.279 266.92C168.959 266.92 168.692 266.872 168.479 266.776C168.266 266.68 168.106 266.557 167.999 266.408C167.892 266.269 167.828 266.136 167.807 266.008C167.882 265.784 168.004 265.608 168.175 265.48C168.335 265.352 168.554 265.288 168.831 265.288C169.076 265.288 169.295 265.336 169.487 265.432C169.69 265.539 169.876 265.677 170.047 265.848L170.639 266.36L170.511 266.376H170.207L170.143 266.328C170.25 266.221 170.335 266.104 170.399 265.976C170.474 265.859 170.543 265.688 170.607 265.464C170.671 265.24 170.724 264.952 170.767 264.6C170.81 264.248 170.842 263.811 170.863 263.288C170.884 262.765 170.895 262.136 170.895 261.4V258.792C170.895 258.376 170.89 258.008 170.879 257.688C170.879 257.368 170.874 257.037 170.863 256.696L169.551 256.6V255.944L171.935 255.08L172.303 255.192L172.271 257.224V261.416C172.271 262.205 172.25 262.877 172.207 263.432C172.164 263.987 172.079 264.456 171.951 264.84C171.823 265.224 171.636 265.56 171.391 265.848C171.135 266.179 170.847 266.44 170.527 266.632C170.218 266.824 169.802 266.92 169.279 266.92ZM171.551 253.48C171.252 253.48 170.996 253.379 170.783 253.176C170.57 252.973 170.463 252.723 170.463 252.424C170.463 252.125 170.57 251.88 170.783 251.688C170.996 251.485 171.252 251.384 171.551 251.384C171.86 251.384 172.116 251.485 172.319 251.688C172.522 251.88 172.623 252.125 172.623 252.424C172.623 252.723 172.522 252.973 172.319 253.176C172.116 253.379 171.86 253.48 171.551 253.48ZM178.27 263.208C177.492 263.208 176.814 263.048 176.238 262.728C175.673 262.397 175.236 261.933 174.926 261.336C174.628 260.739 174.478 260.029 174.478 259.208C174.478 258.387 174.638 257.661 174.958 257.032C175.289 256.403 175.737 255.912 176.302 255.56C176.868 255.197 177.502 255.016 178.206 255.016C178.825 255.016 179.369 255.144 179.838 255.4C180.308 255.645 180.676 256.003 180.942 256.472C181.209 256.931 181.342 257.485 181.342 258.136C181.342 258.328 181.332 258.52 181.31 258.712C181.289 258.893 181.262 259.043 181.23 259.16H175.262V258.44H179.262C179.561 258.387 179.753 258.291 179.838 258.152C179.924 258.003 179.966 257.827 179.966 257.624C179.966 257.229 179.897 256.899 179.758 256.632C179.62 256.365 179.417 256.163 179.15 256.024C178.884 255.885 178.569 255.816 178.206 255.816C177.812 255.816 177.438 255.928 177.086 256.152C176.745 256.376 176.468 256.723 176.254 257.192C176.052 257.661 175.95 258.28 175.95 259.048C175.95 259.699 176.057 260.259 176.27 260.728C176.494 261.187 176.804 261.539 177.198 261.784C177.604 262.019 178.078 262.136 178.622 262.136C179.166 262.136 179.625 262.04 179.998 261.848C180.382 261.656 180.724 261.384 181.022 261.032L181.47 261.4C181.246 261.752 180.99 262.067 180.702 262.344C180.425 262.611 180.089 262.824 179.694 262.984C179.31 263.133 178.836 263.208 178.27 263.208ZM186.644 263.208C185.866 263.208 185.194 263.048 184.628 262.728C184.063 262.397 183.631 261.933 183.332 261.336C183.034 260.728 182.884 260.019 182.884 259.208C182.884 258.355 183.055 257.619 183.396 257C183.748 256.371 184.212 255.885 184.788 255.544C185.364 255.192 185.999 255.016 186.692 255.016C187.236 255.016 187.722 255.107 188.148 255.288C188.575 255.469 188.922 255.709 189.188 256.008C189.455 256.307 189.631 256.637 189.716 257C189.674 257.224 189.588 257.4 189.46 257.528C189.332 257.645 189.156 257.704 188.932 257.704C188.655 257.704 188.447 257.629 188.308 257.48C188.18 257.32 188.084 257.128 188.02 256.904L187.588 255.464L188.468 256.2C188.212 256.072 187.946 255.976 187.668 255.912C187.402 255.848 187.119 255.816 186.82 255.816C186.34 255.816 185.914 255.944 185.54 256.2C185.178 256.445 184.89 256.808 184.676 257.288C184.474 257.768 184.372 258.355 184.372 259.048C184.372 259.741 184.484 260.317 184.708 260.776C184.943 261.224 185.252 261.56 185.636 261.784C186.031 262.008 186.474 262.12 186.964 262.12C187.295 262.12 187.588 262.077 187.844 261.992C188.111 261.907 188.362 261.784 188.596 261.624C188.831 261.464 189.05 261.261 189.252 261.016L189.732 261.448C189.54 261.789 189.306 262.093 189.028 262.36C188.762 262.616 188.436 262.824 188.052 262.984C187.668 263.133 187.199 263.208 186.644 263.208ZM192.641 256.12V255.224H195.553V256.12H192.641ZM193.841 263.176C193.254 263.176 192.785 263.016 192.433 262.696C192.081 262.376 191.905 261.885 191.905 261.224C191.905 261.021 191.905 260.824 191.905 260.632C191.905 260.44 191.905 260.211 191.905 259.944V256.12H190.529V255.384L192.561 255.144L191.953 255.64L192.465 253.032H193.441L193.281 255.688L193.329 255.912V261.064C193.329 261.48 193.414 261.784 193.585 261.976C193.756 262.157 193.99 262.248 194.289 262.248C194.481 262.248 194.662 262.216 194.833 262.152C195.004 262.077 195.174 261.987 195.345 261.88L195.713 262.424C195.596 262.563 195.441 262.691 195.249 262.808C195.068 262.925 194.86 263.016 194.625 263.08C194.39 263.144 194.129 263.176 193.841 263.176Z" fill="white"/>
</g>
<defs>
<linearGradient id="paint0_linear_60_265" x1="104.5" y1="73" x2="104.5" y2="136" gradientUnits="userSpaceOnUse">
<stop stop-color="#A9E8F0"/>
<stop offset="1" stop-color="#7FE783"/>
</linearGradient>
<linearGradient id="paint1_linear_60_265" x1="104.5" y1="54" x2="104.5" y2="156.5" gradientUnits="userSpaceOnUse">
<stop stop-color="#A9E8F0"/>
<stop offset="1" stop-color="#7FE783"/>
</linearGradient>
<linearGradient id="paint2_linear_60_265" x1="104.5" y1="54" x2="104.5" y2="156.5" gradientUnits="userSpaceOnUse">
<stop stop-color="#A9E8F0"/>
<stop offset="1" stop-color="#7FE783"/>
</linearGradient>
<linearGradient id="paint3_linear_60_265" x1="104.5" y1="54" x2="104.5" y2="156.5" gradientUnits="userSpaceOnUse">
<stop stop-color="#A9E8F0"/>
<stop offset="1" stop-color="#7FE783"/>
</linearGradient>
<linearGradient id="paint4_linear_60_265" x1="104.5" y1="54" x2="104.5" y2="156.5" gradientUnits="userSpaceOnUse">
<stop stop-color="#A9E8F0"/>
<stop offset="1" stop-color="#7FE783"/>
</linearGradient>
<clipPath id="clip0_60_265">
<rect width="210" height="268" fill="white"/>
</clipPath>
</defs>
</svg>